<?xml version="1.0" encoding="utf-8"?>
<!-- Generator: Adobe Illustrator 17.1.0, SVG Export Plug-In . SVG Version: 6.00 Build 0)  -->
<!DOCTYPE svg PUBLIC "-//W3C//DTD SVG 1.1//EN" "http://www.w3.org/Graphics/SVG/1.1/DTD/svg11.dtd" [
	<!ENTITY st0 "fill:none;stroke:#FFFFFF;stroke-width:6;stroke-miterlimit:10;">
]>
<svg version="1.1" id="Layer_1" xmlns="http://www.w3.org/2000/svg" xmlns:xlink="http://www.w3.org/1999/xlink" x="0px" y="0px"
	 viewBox="0 0 1920 1200" style="enable-background:new 0 0 1920 1200;" xml:space="preserve">
<g>
	<rect x="396.665" y="480.864" style="&st0;" width="205.031" height="307.546"/>
	<rect x="439.38" y="548.281" style="&st0;" width="119.601" height="119.601"/>
	<line style="&st0;" x1="439.38" y1="608.082" x2="558.981" y2="608.082"/>
	<line style="&st0;" x1="439.38" y1="480.864" x2="439.38" y2="788.411"/>
	<line style="&st0;" x1="558.981" y1="480.864" x2="558.981" y2="788.411"/>
	<line style="&st0;" x1="439.38" y1="702.981" x2="558.981" y2="702.981"/>
	<line style="&st0;" x1="456.466" y1="617.552" x2="541.895" y2="617.552"/>
	<rect x="456.466" y="574.837" style="&st0;" width="85.43" height="17.086"/>
	<rect x="456.466" y="728.61" style="&st0;" width="85.43" height="17.086"/>
</g>
<g>
	<rect x="652.954" y="463.778" style="&st0;" width="239.203" height="324.632"/>
	<rect x="712.754" y="548.281" style="&st0;" width="119.601" height="119.601"/>
	<line style="&st0;" x1="712.754" y1="608.082" x2="832.356" y2="608.082"/>
	<line style="&st0;" x1="712.754" y1="463.778" x2="712.754" y2="788.411"/>
	<line style="&st0;" x1="832.356" y1="463.778" x2="832.356" y2="788.411"/>
	<line style="&st0;" x1="712.754" y1="702.981" x2="832.356" y2="702.981"/>
	<line style="&st0;" x1="729.84" y1="617.552" x2="815.27" y2="617.552"/>
	<rect x="729.84" y="574.837" style="&st0;" width="85.43" height="17.086"/>
	<rect x="729.84" y="728.61" style="&st0;" width="85.43" height="17.086"/>
</g>
<g>
	<rect x="943.414" y="463.778" style="&st0;" width="256.289" height="324.632"/>
	<rect x="1011.758" y="548.281" style="&st0;" width="119.601" height="119.601"/>
	<line style="&st0;" x1="1011.758" y1="608.082" x2="1131.359" y2="608.082"/>
	<line style="&st0;" x1="1011.758" y1="464.19" x2="1011.758" y2="788.411"/>
	<line style="&st0;" x1="1131.359" y1="464.19" x2="1131.359" y2="788.411"/>
	<line style="&st0;" x1="1011.758" y1="702.981" x2="1131.359" y2="702.981"/>
	<line style="&st0;" x1="1028.844" y1="617.552" x2="1114.273" y2="617.552"/>
	<rect x="1028.844" y="574.837" style="&st0;" width="85.43" height="17.086"/>
	<rect x="1028.844" y="728.61" style="&st0;" width="85.43" height="17.086"/>
</g>
<g>
	<rect x="1250.96" y="395.435" style="&st0;" width="273.374" height="392.976"/>
	<rect x="1310.761" y="515.036" style="&st0;" width="153.773" height="153.773"/>
	<line style="&st0;" x1="1310.761" y1="591.923" x2="1464.534" y2="591.923"/>
	<line style="&st0;" x1="1310.761" y1="395.435" x2="1310.761" y2="788.411"/>
	<line style="&st0;" x1="1464.534" y1="395.435" x2="1464.534" y2="788.411"/>
	<line style="&st0;" x1="1310.761" y1="702.981" x2="1464.534" y2="702.981"/>
	<line style="&st0;" x1="1336.39" y1="617.552" x2="1438.905" y2="617.552"/>
	<rect x="1336.39" y="557.751" style="&st0;" width="102.515" height="17.086"/>
	<rect x="1336.39" y="728.61" style="&st0;" width="102.515" height="17.086"/>
</g>
</svg>
