<?xml version="1.0" encoding="utf-8"?>
<!-- Generator: Adobe Illustrator 17.1.0, SVG Export Plug-In . SVG Version: 6.00 Build 0)  -->
<!DOCTYPE svg PUBLIC "-//W3C//DTD SVG 1.1//EN" "http://www.w3.org/Graphics/SVG/1.1/DTD/svg11.dtd" [
	<!ENTITY st0 "fill:#FFFFFF;">
]>
<svg version="1.1" id="Layer_1" xmlns="http://www.w3.org/2000/svg" xmlns:xlink="http://www.w3.org/1999/xlink" x="0px" y="0px"
	 viewBox="0 0 158.915 68.124" style="enable-background:new 0 0 158.915 68.124;" xml:space="preserve">
<g>
	<path style="&st0;" d="M28.354,49.888h-1.997V20.126h-8.12v-1.889h18.236v1.889h-8.119V49.888z"/>
	<path style="&st0;" d="M65.782,34.062c0,8.9-7.45,16.246-16.277,16.246c-8.827,0-16.28-7.346-16.28-16.246
		c0-8.899,7.411-16.246,16.28-16.246C58.332,17.816,65.782,25.162,65.782,34.062z M35.223,34.062
		c0,7.809,6.452,14.357,14.282,14.357c7.785,0,14.281-6.591,14.281-14.357c0-7.807-6.495-14.357-14.281-14.357
		C41.675,19.705,35.223,26.255,35.223,34.062z"/>
	<path style="&st0;" d="M70.151,47.999h7.995v1.889h-9.992V18.236h1.997V47.999z"/>
	<path style="&st0;" d="M109.955,34.062c0,8.9-7.452,16.246-16.279,16.246c-8.827,0-16.282-7.346-16.282-16.246
		c0-8.899,7.411-16.246,16.282-16.246C102.502,17.816,109.955,25.162,109.955,34.062z M79.395,34.062
		c0,7.809,6.452,14.357,14.281,14.357c7.785,0,14.281-6.591,14.281-14.357c0-7.807-6.495-14.357-14.281-14.357
		C85.847,19.705,79.395,26.255,79.395,34.062z"/>
	<path style="&st0;" d="M140.679,50.937l-26.356-28.251v27.202h-2V17.816l26.357,28.042V18.236h2V50.937z"/>
</g>
</svg>
